<svg width="200" height="200" viewBox="0 0 200 200" fill="none" xmlns="http://www.w3.org/2000/svg">
<circle cx="100" cy="100" r="100" fill="#F0F0F0"/>
<path d="M79.82 100.6C76.7 100.6 73.82 100.06 71.18 98.98C68.54 97.9 66.24 96.36 64.28 94.36C62.36 92.36 60.86 90 59.78 87.28C58.74 84.52 58.22 81.5 58.22 78.22C58.22 73.86 59.14 70.04 60.98 66.76C62.82 63.44 65.36 60.86 68.6 59.02C71.88 57.14 75.6 56.2 79.76 56.2C84 56.2 87.74 57.14 90.98 59.02C94.26 60.86 96.82 63.44 98.66 66.76C100.5 70.08 101.42 73.92 101.42 78.28C101.42 81.56 100.88 84.56 99.8 87.28C98.76 90 97.26 92.36 95.3 94.36C93.38 96.36 91.1 97.9 88.46 98.98C85.82 100.06 82.94 100.6 79.82 100.6ZM79.76 94.24C82.48 94.24 84.86 93.56 86.9 92.2C88.98 90.84 90.6 88.96 91.76 86.56C92.92 84.12 93.5 81.32 93.5 78.16C93.5 75.04 92.92 72.32 91.76 70C90.64 67.64 89.04 65.82 86.96 64.54C84.92 63.22 82.52 62.56 79.76 62.56C77.04 62.56 74.64 63.22 72.56 64.54C70.52 65.82 68.94 67.62 67.82 69.94C66.7 72.26 66.14 75 66.14 78.16C66.14 81.36 66.7 84.16 67.82 86.56C68.98 88.96 70.58 90.84 72.62 92.2C74.7 93.56 77.08 94.24 79.76 94.24ZM107.177 100V56.8H125.417C128.497 56.8 131.177 57.32 133.457 58.36C135.737 59.4 137.477 60.86 138.677 62.74C139.917 64.62 140.537 66.82 140.537 69.34C140.537 71.82 139.917 74 138.677 75.88C137.477 77.76 135.737 79.22 133.457 80.26C131.177 81.3 128.497 81.82 125.417 81.82H113.297V75.88H125.177C127.697 75.88 129.617 75.3 130.937 74.14C132.297 72.98 132.977 71.38 132.977 69.34C132.977 67.3 132.317 65.74 130.997 64.66C129.677 63.54 127.737 62.98 125.177 62.98H114.977V100H107.177ZM131.897 100L112.637 77.92H121.397L142.697 100H131.897ZM79.46 152.6C76.38 152.6 73.54 152.06 70.94 150.98C68.38 149.86 66.14 148.3 64.22 146.3C62.3 144.3 60.82 141.94 59.78 139.22C58.74 136.5 58.22 133.52 58.22 130.28C58.22 127.04 58.74 124.08 59.78 121.4C60.82 118.72 62.28 116.4 64.16 114.44C66.08 112.44 68.32 110.9 70.88 109.82C73.48 108.74 76.34 108.2 79.46 108.2C82.9 108.2 86 108.88 88.76 110.24C91.52 111.6 93.78 113.52 95.54 116C97.34 118.44 98.44 121.32 98.84 124.64H91.16C90.68 121.4 89.38 118.92 87.26 117.2C85.14 115.44 82.56 114.56 79.52 114.56C76.84 114.56 74.5 115.2 72.5 116.48C70.5 117.76 68.94 119.58 67.82 121.94C66.7 124.26 66.14 127.02 66.14 130.22C66.14 133.5 66.7 136.34 67.82 138.74C68.94 141.1 70.52 142.94 72.56 144.26C74.6 145.58 76.94 146.24 79.58 146.24C82.54 146.24 85.08 145.38 87.2 143.66C89.32 141.9 90.66 139.42 91.22 136.22H98.96C98.48 139.5 97.34 142.38 95.54 144.86C93.78 147.34 91.52 149.26 88.76 150.62C86 151.94 82.9 152.6 79.46 152.6ZM100.278 152L116.178 108.8H122.898L107.958 152H100.278ZM132.858 152L117.978 108.8H125.058L140.898 152H132.858ZM108.498 135.02H132.138V141.26H108.498V135.02Z" fill="black"/>
</svg>
